# xmcd
#
# Track frame offsets:
#	150
#	21473
#	45162
#	66964
#	90726
#	108988
#	129841
#	145138
#	160719
#	179199
#	204190
#	227910
#
# Disc length: 3357 seconds
#
# Revision: 0
# Processed by: cddbd v1.5.2PL0 Copyright (c) Steve Scherf et al.
# Submitted via: dBpowerAMP V4.0
#
DISCID=9e0d1b0c
DTITLE=POPA CHUBBY - ne Million Broken Guitars
DYEAR=2002
DGENRE=Blues
TTITLE0=Nobody Knows You When You're Down And Out
TTITLE1=What's Your Point
TTITLE2=Dance The Night Away
TTITLE3=Real Thing
TTITLE4=Laya What Ya Tryin' To Do
TTITLE5=Long Way Home
TTITLE6=Protected
TTITLE7=It All Turns To Cold
TTITLE8=What's Your Problem?
TTITLE9=Naughty Little People
TTITLE10=Nobody Loves Me Like I Love Myself
TTITLE11=Oh!Roger(From ROCD ROT)
EXTD=
EXTT0=
EXTT1=
EXTT2=
EXTT3=
EXTT4=
EXTT5=
EXTT6=
EXTT7=
EXTT8=
EXTT9=
EXTT10=
EXTT11=
PLAYORDER=
